# xmcd CD database file
#
# Track frame offsets:
#	150
#	23232
#	43367
#	61149
#	83464
#	98013
#	122614
#	157027
#	174018
#	185447
#	203151
#
# Disc length: 3066 seconds
#
# Revision: 0
# Processed by: cddbd v1.5.2PL0 Copyright (c) Steve Scherf et al.
# Submitted via: CDex 1.51
#
DISCID=820bf80b
DTITLE=Krecia Robota - Hej nie boj sie
DYEAR=2011
DGENRE=Blues
TTITLE0=Dead flowers
TTITLE1=Cold shot
TTITLE2=Hej nie boj sie
TTITLE3=Wstaje rano bezbolesnie
TTITLE4=Boogie Woogie Etiuda
TTITLE5=Atramentowa noc
TTITLE6=Ponczocha z niewielkim sladem zazenowania
TTITLE7=Born in Chicago
TTITLE8=All shook up
TTITLE9=Something like Professor Longhair
TTITLE10=Knockin' on heaven' doors
EXTD=YEAR: 2011
EXTT0=
EXTT1=
EXTT2=
EXTT3=
EXTT4=
EXTT5=
EXTT6=
EXTT7=
EXTT8=
EXTT9=
EXTT10=
PLAYORDER=
